<mxfile host="app.diagrams.net" modified="2024-03-25T12:16:55.370Z" agent="Mozilla/5.0 (Windows NT 10.0; Win64; x64) AppleWebKit/537.36 (KHTML, like Gecko) Chrome/123.0.0.0 Safari/537.36" etag="ZBVY1GBkwqH1GJEDTOTp" version="24.0.7" type="github">
  <diagram id="R2lEEEUBdFMjLlhIrx00" name="Page-1">
    <mxGraphModel dx="873" dy="473" grid="1" gridSize="10" guides="1" tooltips="1" connect="1" arrows="1" fold="1" page="1" pageScale="1" pageWidth="850" pageHeight="1100" math="0" shadow="0" extFonts="Permanent Marker^https://fonts.googleapis.com/css?family=Permanent+Marker">
      <root>
        <mxCell id="0" />
        <mxCell id="1" parent="0" />
        <mxCell id="VjnAYQMm5UZiJsf2b5uH-1" value="User" style="whiteSpace=wrap;html=1;align=center;" vertex="1" parent="1">
          <mxGeometry x="360" y="110" width="100" height="40" as="geometry" />
        </mxCell>
        <mxCell id="VjnAYQMm5UZiJsf2b5uH-2" value="Pembeli" style="whiteSpace=wrap;html=1;align=center;" vertex="1" parent="1">
          <mxGeometry x="100" y="320" width="100" height="40" as="geometry" />
        </mxCell>
        <mxCell id="VjnAYQMm5UZiJsf2b5uH-3" value="Penjual" style="whiteSpace=wrap;html=1;align=center;" vertex="1" parent="1">
          <mxGeometry x="560" y="320" width="100" height="40" as="geometry" />
        </mxCell>
        <mxCell id="VjnAYQMm5UZiJsf2b5uH-13" value="uname" style="ellipse;whiteSpace=wrap;html=1;align=center;" vertex="1" parent="1">
          <mxGeometry x="425" y="40" width="60" height="20" as="geometry" />
        </mxCell>
        <mxCell id="VjnAYQMm5UZiJsf2b5uH-14" value="" style="endArrow=none;html=1;rounded=0;entryX=0.5;entryY=1;entryDx=0;entryDy=0;exitX=0.5;exitY=0;exitDx=0;exitDy=0;" edge="1" parent="1" target="VjnAYQMm5UZiJsf2b5uH-1">
          <mxGeometry relative="1" as="geometry">
            <mxPoint x="410" y="180" as="sourcePoint" />
            <mxPoint x="370" y="160" as="targetPoint" />
          </mxGeometry>
        </mxCell>
        <mxCell id="VjnAYQMm5UZiJsf2b5uH-15" value="" style="endArrow=none;html=1;rounded=0;entryX=0;entryY=0.25;entryDx=0;entryDy=0;" edge="1" parent="1" target="VjnAYQMm5UZiJsf2b5uH-3">
          <mxGeometry relative="1" as="geometry">
            <mxPoint x="540" y="280" as="sourcePoint" />
            <mxPoint x="520" y="300" as="targetPoint" />
          </mxGeometry>
        </mxCell>
        <mxCell id="VjnAYQMm5UZiJsf2b5uH-17" value="U_id" style="ellipse;whiteSpace=wrap;html=1;align=center;fontStyle=4;" vertex="1" parent="1">
          <mxGeometry x="490" y="60" width="60" height="30" as="geometry" />
        </mxCell>
        <mxCell id="VjnAYQMm5UZiJsf2b5uH-18" value="" style="endArrow=none;html=1;rounded=0;entryX=0;entryY=1;entryDx=0;entryDy=0;exitX=1;exitY=0;exitDx=0;exitDy=0;" edge="1" parent="1" source="VjnAYQMm5UZiJsf2b5uH-1" target="VjnAYQMm5UZiJsf2b5uH-17">
          <mxGeometry relative="1" as="geometry">
            <mxPoint x="280" y="90" as="sourcePoint" />
            <mxPoint x="440" y="90" as="targetPoint" />
          </mxGeometry>
        </mxCell>
        <mxCell id="VjnAYQMm5UZiJsf2b5uH-19" value="" style="endArrow=none;html=1;rounded=0;entryX=0.5;entryY=1;entryDx=0;entryDy=0;exitX=0.75;exitY=0;exitDx=0;exitDy=0;" edge="1" parent="1" source="VjnAYQMm5UZiJsf2b5uH-1" target="VjnAYQMm5UZiJsf2b5uH-13">
          <mxGeometry relative="1" as="geometry">
            <mxPoint x="200" y="100" as="sourcePoint" />
            <mxPoint x="360" y="100" as="targetPoint" />
          </mxGeometry>
        </mxCell>
        <mxCell id="VjnAYQMm5UZiJsf2b5uH-26" value="item terjual" style="ellipse;whiteSpace=wrap;html=1;align=center;" vertex="1" parent="1">
          <mxGeometry x="680" y="250" width="70" height="30" as="geometry" />
        </mxCell>
        <mxCell id="VjnAYQMm5UZiJsf2b5uH-27" value="level" style="ellipse;whiteSpace=wrap;html=1;align=center;" vertex="1" parent="1">
          <mxGeometry x="60" y="280" width="50" height="20" as="geometry" />
        </mxCell>
        <mxCell id="VjnAYQMm5UZiJsf2b5uH-28" value="" style="endArrow=none;html=1;rounded=0;exitX=0.5;exitY=1;exitDx=0;exitDy=0;entryX=0;entryY=0;entryDx=0;entryDy=0;" edge="1" parent="1" source="VjnAYQMm5UZiJsf2b5uH-27" target="VjnAYQMm5UZiJsf2b5uH-2">
          <mxGeometry relative="1" as="geometry">
            <mxPoint x="160" y="230" as="sourcePoint" />
            <mxPoint x="320" y="230" as="targetPoint" />
          </mxGeometry>
        </mxCell>
        <mxCell id="VjnAYQMm5UZiJsf2b5uH-29" value="" style="endArrow=none;html=1;rounded=0;entryX=0;entryY=1;entryDx=0;entryDy=0;exitX=1;exitY=0;exitDx=0;exitDy=0;" edge="1" parent="1" source="VjnAYQMm5UZiJsf2b5uH-3" target="VjnAYQMm5UZiJsf2b5uH-26">
          <mxGeometry relative="1" as="geometry">
            <mxPoint x="420" y="190" as="sourcePoint" />
            <mxPoint x="420" y="160" as="targetPoint" />
          </mxGeometry>
        </mxCell>
        <mxCell id="VjnAYQMm5UZiJsf2b5uH-30" value="deskripsi" style="ellipse;whiteSpace=wrap;html=1;align=center;" vertex="1" parent="1">
          <mxGeometry x="680" y="290" width="70" height="30" as="geometry" />
        </mxCell>
        <mxCell id="VjnAYQMm5UZiJsf2b5uH-31" value="" style="endArrow=none;html=1;rounded=0;entryX=0;entryY=0.5;entryDx=0;entryDy=0;exitX=1;exitY=0.25;exitDx=0;exitDy=0;" edge="1" target="VjnAYQMm5UZiJsf2b5uH-30" parent="1" source="VjnAYQMm5UZiJsf2b5uH-3">
          <mxGeometry relative="1" as="geometry">
            <mxPoint x="630" y="250" as="sourcePoint" />
            <mxPoint x="460" y="200" as="targetPoint" />
          </mxGeometry>
        </mxCell>
        <mxCell id="VjnAYQMm5UZiJsf2b5uH-32" value="produk" style="whiteSpace=wrap;html=1;align=center;" vertex="1" parent="1">
          <mxGeometry x="100" y="90" width="100" height="40" as="geometry" />
        </mxCell>
        <mxCell id="VjnAYQMm5UZiJsf2b5uH-33" value="nama" style="ellipse;whiteSpace=wrap;html=1;align=center;" vertex="1" parent="1">
          <mxGeometry x="60" y="35" width="50" height="30" as="geometry" />
        </mxCell>
        <mxCell id="VjnAYQMm5UZiJsf2b5uH-34" value="p_id" style="ellipse;whiteSpace=wrap;html=1;align=center;fontStyle=4;" vertex="1" parent="1">
          <mxGeometry x="125" y="20" width="50" height="30" as="geometry" />
        </mxCell>
        <mxCell id="VjnAYQMm5UZiJsf2b5uH-35" value="deskripsi" style="ellipse;whiteSpace=wrap;html=1;align=center;" vertex="1" parent="1">
          <mxGeometry x="190" y="30" width="70" height="30" as="geometry" />
        </mxCell>
        <mxCell id="VjnAYQMm5UZiJsf2b5uH-36" value="" style="endArrow=none;html=1;rounded=0;exitX=0.5;exitY=1;exitDx=0;exitDy=0;entryX=0.25;entryY=0;entryDx=0;entryDy=0;" edge="1" parent="1" source="VjnAYQMm5UZiJsf2b5uH-33" target="VjnAYQMm5UZiJsf2b5uH-32">
          <mxGeometry relative="1" as="geometry">
            <mxPoint x="30" y="160" as="sourcePoint" />
            <mxPoint x="190" y="160" as="targetPoint" />
          </mxGeometry>
        </mxCell>
        <mxCell id="VjnAYQMm5UZiJsf2b5uH-37" value="" style="endArrow=none;html=1;rounded=0;exitX=0.5;exitY=1;exitDx=0;exitDy=0;entryX=0.5;entryY=0;entryDx=0;entryDy=0;" edge="1" parent="1" source="VjnAYQMm5UZiJsf2b5uH-34" target="VjnAYQMm5UZiJsf2b5uH-32">
          <mxGeometry relative="1" as="geometry">
            <mxPoint x="150" y="220" as="sourcePoint" />
            <mxPoint x="310" y="220" as="targetPoint" />
          </mxGeometry>
        </mxCell>
        <mxCell id="VjnAYQMm5UZiJsf2b5uH-38" value="" style="endArrow=none;html=1;rounded=0;exitX=0;exitY=1;exitDx=0;exitDy=0;entryX=0.75;entryY=0;entryDx=0;entryDy=0;" edge="1" parent="1" source="VjnAYQMm5UZiJsf2b5uH-35" target="VjnAYQMm5UZiJsf2b5uH-32">
          <mxGeometry relative="1" as="geometry">
            <mxPoint x="160" y="60" as="sourcePoint" />
            <mxPoint x="160" y="100" as="targetPoint" />
          </mxGeometry>
        </mxCell>
        <mxCell id="VjnAYQMm5UZiJsf2b5uH-40" value="me-review" style="shape=rhombus;perimeter=rhombusPerimeter;whiteSpace=wrap;html=1;align=center;" vertex="1" parent="1">
          <mxGeometry x="110" y="200" width="80" height="40" as="geometry" />
        </mxCell>
        <mxCell id="VjnAYQMm5UZiJsf2b5uH-48" value="" style="endArrow=none;html=1;rounded=0;exitX=0.5;exitY=1;exitDx=0;exitDy=0;entryX=0.5;entryY=0;entryDx=0;entryDy=0;" edge="1" parent="1" source="VjnAYQMm5UZiJsf2b5uH-32" target="VjnAYQMm5UZiJsf2b5uH-40">
          <mxGeometry relative="1" as="geometry">
            <mxPoint x="120" y="160" as="sourcePoint" />
            <mxPoint x="280" y="160" as="targetPoint" />
          </mxGeometry>
        </mxCell>
        <mxCell id="VjnAYQMm5UZiJsf2b5uH-49" value="1" style="resizable=0;html=1;whiteSpace=wrap;align=right;verticalAlign=bottom;" connectable="0" vertex="1" parent="VjnAYQMm5UZiJsf2b5uH-48">
          <mxGeometry x="1" relative="1" as="geometry" />
        </mxCell>
        <mxCell id="VjnAYQMm5UZiJsf2b5uH-50" value="" style="shape=link;html=1;rounded=0;entryX=0.5;entryY=1;entryDx=0;entryDy=0;exitX=0.5;exitY=0;exitDx=0;exitDy=0;" edge="1" parent="1" source="VjnAYQMm5UZiJsf2b5uH-2" target="VjnAYQMm5UZiJsf2b5uH-40">
          <mxGeometry relative="1" as="geometry">
            <mxPoint x="340" y="210" as="sourcePoint" />
            <mxPoint x="500" y="210" as="targetPoint" />
          </mxGeometry>
        </mxCell>
        <mxCell id="VjnAYQMm5UZiJsf2b5uH-51" value="N" style="resizable=0;html=1;whiteSpace=wrap;align=right;verticalAlign=bottom;" connectable="0" vertex="1" parent="VjnAYQMm5UZiJsf2b5uH-50">
          <mxGeometry x="1" relative="1" as="geometry">
            <mxPoint x="-3" y="14" as="offset" />
          </mxGeometry>
        </mxCell>
        <mxCell id="VjnAYQMm5UZiJsf2b5uH-52" value="pribadi" style="whiteSpace=wrap;html=1;align=center;" vertex="1" parent="1">
          <mxGeometry x="460" y="470" width="100" height="40" as="geometry" />
        </mxCell>
        <mxCell id="VjnAYQMm5UZiJsf2b5uH-53" value="bisnis" style="whiteSpace=wrap;html=1;align=center;" vertex="1" parent="1">
          <mxGeometry x="590" y="470" width="100" height="40" as="geometry" />
        </mxCell>
      </root>
    </mxGraphModel>
  </diagram>
</mxfile>
